<svg xmlns="http://www.w3.org/2000/svg" viewBox="0 0 297.36 76.9"><defs><style>.cls-1{fill:#a6d7d2;}</style></defs><g id="Layer_2" data-name="Layer 2"><g id="Layer_1-2" data-name="Layer 1"><path class="cls-1" d="M0,4.18H20a27.15,27.15,0,1,1,0,54.29H0ZM14.11,46.52h3.17c8.43,0,15.63-4.61,15.63-15.2,0-9.72-6.41-15.19-15.48-15.19H14.11Z"/><path class="cls-1" d="M63.65,7.34A7.35,7.35,0,1,1,56.3,0,7.37,7.37,0,0,1,63.65,7.34Zm-.79,51.13H49.75V21.53H62.86Z"/><path class="cls-1" d="M105.34,42.2H77.76c0,5.32,2.81,8.2,8.21,8.2A6.54,6.54,0,0,0,92.23,47h12.6a15.07,15.07,0,0,1-7,9.58A22.57,22.57,0,0,1,86,59.69C73.8,59.69,64.65,52.78,64.65,40c0-12.32,8.43-19.73,20.45-19.73,12.82,0,20.24,7.92,20.24,20.52ZM93.17,34.64a7.38,7.38,0,0,0-7.42-5.84c-3.81,0-7,2-7.77,5.84Z"/><path class="cls-1" d="M147.75,54.87c0,15.7-7.78,22-21.39,22-8.5,0-19.87-4.39-21-14.11H120a4.54,4.54,0,0,0,2.45,2.81,8.71,8.71,0,0,0,3.75.86c7.05,0,8.42-4.61,8.42-10.58V54.15a15.38,15.38,0,0,1-11.74,5c-10.8,0-18.21-8.21-18.21-18.87s7.63-20,18.93-20c4.32,0,8.28,1.44,10.88,5.11h.14V21.53h13.11ZM118.22,39.75c0,4.68,3.1,8.28,8.43,8.28s8.42-3.6,8.42-8.28a8.43,8.43,0,0,0-16.85,0Z"/><path class="cls-1" d="M193.61,40c0,12.52-10.37,19.65-22.25,19.65s-22.25-7-22.25-19.65,10.37-19.73,22.25-19.73S193.61,27.43,193.61,40Zm-30.68,0c0,4.68,3.1,8.28,8.43,8.28s8.42-3.6,8.42-8.28a8.43,8.43,0,0,0-16.85,0Z"/><path class="cls-1" d="M249.84,28.15c-.14,7.93-.72,14.69-5.54,21.46C239,57,231,60.27,221.9,60.27,204.84,60.27,193,48.68,193,31.61,193,14,204.91,2.38,222.41,2.38c11.16,0,19.8,5,24.48,15.19L233.5,23.19c-1.95-5.19-6.05-8.64-11.74-8.64-9.29,0-14.11,8.85-14.11,17.13s5,17,14.32,17c6.12,0,10.81-3.17,11.38-9.44H221.83V28.15Z"/><path class="cls-1" d="M297.36,58.47H279.79L266.47,37.59h-.14V58.47H252.21V4.18h21.1c10.73,0,18.87,5.11,18.87,16.7,0,7.49-4.18,14-11.89,15.34Zm-31-30h1.36c4.61,0,9.8-.86,9.8-6.76S272.3,15,267.69,15h-1.36Z"/></g></g></svg>